<svg width="1009" height="233" viewBox="0 0 1009 233" fill="none" xmlns="http://www.w3.org/2000/svg">
<g clip-path="url(#clip0_4993_66021)">
<g filter="url(#filter0_d_4993_66021)">
<path d="M942.898 160.788C946.042 159.74 947.74 156.342 946.692 153.198L929.609 101.972C928.561 98.828 925.163 97.1294 922.019 98.1777C918.876 99.226 917.177 102.624 918.226 105.768L933.41 151.303L887.875 166.487C884.732 167.535 883.033 170.933 884.081 174.077C885.13 177.221 888.528 178.919 891.671 177.871L942.898 160.788ZM37.532 149.627C34.5116 150.99 33.168 154.544 34.5311 157.564C35.8941 160.585 39.4476 161.928 42.468 160.565L37.532 149.627ZM943.683 149.729C797.032 76.4268 414.598 -20.5325 37.532 149.627L42.468 160.565C415.402 -7.73039 793.968 88.3105 938.317 160.463L943.683 149.729Z" fill="url(#paint0_linear_4993_66021)"/>
</g>
</g>
<defs>
<filter id="filter0_d_4993_66021" x="-7.00146" y="20.9984" width="995.003" height="205.182" filterUnits="userSpaceOnUse" color-interpolation-filters="sRGB">
<feFlood flood-opacity="0" result="BackgroundImageFix"/>
<feColorMatrix in="SourceAlpha" type="matrix" values="0 0 0 0 0 0 0 0 0 0 0 0 0 0 0 0 0 0 127 0" result="hardAlpha"/>
<feOffset dy="7"/>
<feGaussianBlur stdDeviation="20.5"/>
<feComposite in2="hardAlpha" operator="out"/>
<feColorMatrix type="matrix" values="0 0 0 0 0.670463 0 0 0 0 0.933333 0 0 0 0 0.312667 0 0 0 0.5 0"/>
<feBlend mode="normal" in2="BackgroundImageFix" result="effect1_dropShadow_4993_66021"/>
<feBlend mode="normal" in="SourceGraphic" in2="effect1_dropShadow_4993_66021" result="shape"/>
</filter>
<linearGradient id="paint0_linear_4993_66021" x1="68.1562" y1="107.563" x2="914.5" y2="107.563" gradientUnits="userSpaceOnUse">
<stop stop-color="#90D82E" stop-opacity="0"/>
<stop offset="0.398958" stop-color="#90D82E" stop-opacity="0.6"/>
<stop offset="1" stop-color="#00BA80"/>
</linearGradient>
<clipPath id="clip0_4993_66021">
<rect width="1009" height="233" fill="white"/>
</clipPath>
</defs>
</svg>
